<?xml version="1.0" standalone="no"?>
<!DOCTYPE svg PUBLIC "-//W3C//DTD SVG 20010904//EN"
 "http://www.w3.org/TR/2001/REC-SVG-20010904/DTD/svg10.dtd">
<svg version="1.0" xmlns="http://www.w3.org/2000/svg"
 width="512.000000pt" height="512.000000pt" viewBox="0 0 512.000000 512.000000"
 preserveAspectRatio="xMidYMid meet">
<metadata>
Created by potrace 1.11, written by Peter Selinger 2001-2013
</metadata>
<g transform="translate(0.000000,512.000000) scale(0.100000,-0.100000)"
fill="#000000" stroke="none">
<path d="M1195 5086 c-271 -111 -484 -253 -665 -442 -113 -119 -186 -221 -245
-347 -144 -303 -154 -712 -25 -1020 82 -198 287 -430 506 -574 351 -230 726
-355 1809 -602 591 -134 835 -216 1035 -345 199 -129 267 -247 258 -450 -8
-164 -57 -259 -191 -365 -204 -162 -522 -241 -974 -241 -412 0 -781 92 -1030
256 -231 154 -383 421 -383 674 l0 58 -112 6 c-62 3 -353 9 -646 12 l-533 7 3
-234 4 -234 33 -95 c121 -348 388 -665 744 -887 112 -69 338 -178 470 -227
l97 -36 1340 0 1339 0 72 26 c461 166 829 488 988 863 l31 73 0 481 0 481 -40
82 c-99 205 -339 450 -590 604 -105 64 -293 155 -420 203 -170 65 -279 93
-950 247 -955 218 -1188 284 -1393 393 -98 52 -161 112 -195 185 -25 53 -27
67 -27 192 0 125 2 139 26 190 68 143 223 265 419 329 275 90 808 76 1130 -29
158 -52 263 -113 361 -210 127 -125 186 -246 213 -429 l12 -86 430 -7 c236 -3
534 -8 663 -11 l234 -4 -6 106 c-22 371 -147 661 -399 926 -180 190 -437 355
-732 470 l-114 45 -1234 0 -1233 -1 -80 -33z"/>
</g>
</svg>
